<svg xmlns="http://www.w3.org/2000/svg" width="3121" height="901" fill="none"><path fill="#FF4D00" d="M465.004 563.712c-18.981-8.528-37.545-27.076-70.967-60.471l-50.054-50.042c-8.124-8.124-12.957-12.974-16.43-16.775-2.204-2.414-3.051-3.545-3.252-3.825a18.112 18.112 0 0 1 0-17.896c.201-.279 1.048-1.411 3.252-3.824 3.473-3.802 8.305-8.652 16.43-16.776 38.691-38.691 50.993-50.355 62.263-56.902 35.263-20.483 78.801-20.483 114.063 0 11.271 6.546 23.573 18.21 62.265 56.9l27.134 27.134 37.928-37.928-27.135-27.134c-36.275-36.274-54.413-54.411-73.251-65.354-51.92-30.158-116.025-30.157-167.945.002-18.838 10.942-36.975 29.08-73.25 65.354-15.568 15.569-23.353 23.353-28.049 31.438a71.75 71.75 0 0 0 .001 72.078c4.696 8.084 12.481 15.868 28.049 31.436l61.701 61.699c26.948 26.947 40.422 40.42 56.185 49.995a153.27 153.27 0 0 0 43.198 17.892c17.917 4.376 36.972 4.375 75.081 4.375h268.93c38.11 0 57.166 0 75.083-4.376a153.268 153.268 0 0 0 43.199-17.894c15.763-9.575 29.237-23.049 56.185-49.997l11.789-11.789c142.903-142.898-71.449-357.246-214.348-214.348L606.52 503.204c-37.575 37.57-56.363 56.355-78.092 63.23a93.35 93.35 0 0 1-53.039.969 99.835 99.835 0 0 1-10.385-3.691Zm923.286-284.694c-14.22 0-25.99-4.665-35.32-13.997-9.34-9.776-14-21.774-14-35.994 0-13.775 4.66-25.551 14-35.327 9.33-9.776 21.1-14.664 35.32-14.664 14.67 0 26.44 4.888 35.33 14.664 9.33 9.776 14 21.552 14 35.327 0 14.22-4.67 26.218-14 35.994-8.89 9.332-20.66 13.997-35.33 13.997Zm1308.56 0c-14.22 0-26-4.665-35.33-13.997-9.33-9.776-14-21.774-14-35.994 0-13.775 4.67-25.551 14-35.327s21.11-14.664 35.33-14.664c14.66 0 26.44 4.888 35.33 14.664 9.33 9.776 13.99 21.552 13.99 35.327 0 14.22-4.66 26.218-13.99 35.994-8.89 9.332-20.67 13.997-35.33 13.997Zm-38.34 345.323c1.52.618 3.44.618 7.28.618 22.95 0 34.43 0 43.5-3.698a49.954 49.954 0 0 0 27.42-27.425c3.7-9.072 3.7-20.549 3.7-43.504V343.285c-.24-23.401-19.15-42.312-42.55-42.551l-.18-.001-.22-.001h-1.38l-.1.001-.12.001c-23.4.239-42.31 19.15-42.55 42.551v269.196c0 3.838 0 5.757.61 7.274a8.378 8.378 0 0 0 4.59 4.586Z"/><path fill="#FF4D00" fill-rule="evenodd" d="M2454.73 631.957c-32.11 0-61.15-7.259-87.1-21.776-25.52-14.958-45.98-34.975-61.37-60.051-14.96-25.516-22.44-53.891-22.44-85.126 0-31.235 7.48-59.171 22.44-83.807 14.95-25.076 35.41-44.873 61.37-59.39 25.95-14.958 54.77-22.437 86.44-22.437 32.56 0 61.59 7.479 87.11 22.437 25.96 14.517 46.41 34.314 61.37 59.39 14.96 24.636 22.44 52.572 22.44 83.807s-7.48 59.61-22.44 85.126c-14.96 25.076-35.41 45.093-61.37 60.051-25.52 14.517-54.33 21.776-86.45 21.776Zm-.66-80.507c16.28 0 30.58-3.519 42.9-10.558 12.75-7.479 22.43-17.598 29.03-30.355 7.04-13.198 10.56-28.156 10.56-44.873 0-16.718-3.52-31.455-10.56-44.213-7.04-12.758-16.72-22.657-29.03-29.695-12.32-7.479-26.62-11.219-42.9-11.219-15.83 0-29.91 3.74-42.23 11.219-12.32 7.038-22 16.937-29.04 29.695-7.03 12.758-10.55 27.495-10.55 44.213 0 16.717 3.52 31.675 10.55 44.873 7.04 12.757 16.72 22.876 29.04 30.355 12.32 7.039 26.4 10.558 42.23 10.558Z" clip-rule="evenodd"/><path fill="#FF4D00" d="M2174.85 624.587c1.49.59 3.36.59 7.11.59 22.42 0 33.64 0 42.53-3.532a49.983 49.983 0 0 0 28-28.002c3.53-8.891 3.53-20.103 3.53-42.528v-353.27c0-3.75 0-5.625-.59-7.111a8.354 8.354 0 0 0-4.68-4.683c-1.49-.59-3.36-.59-7.11-.59-22.43 0-33.64 0-42.53 3.532a49.986 49.986 0 0 0-28 28.002c-3.53 8.891-3.53 20.104-3.53 42.528v353.27c0 3.75 0 5.625.59 7.111a8.354 8.354 0 0 0 4.68 4.683Z"/><path fill="#FF4D00" fill-rule="evenodd" d="M1986.15 631.958c-22.87 0-43.55-4.619-62.03-13.857-11-5.765-20.68-12.7-29.03-20.805v74.654c0 21.895 0 32.842-3.37 41.549a50.006 50.006 0 0 1-28.58 28.578c-8.71 3.37-19.66 3.37-41.55 3.37-3.66 0-5.49 0-6.95-.563a8.38 8.38 0 0 1-4.78-4.779c-.56-1.456-.56-3.286-.56-6.947V375.433c0-17.501 0-26.251 2.17-33.37a49.976 49.976 0 0 1 33.26-33.265c7.12-2.167 15.87-2.167 33.37-2.167 3.24 0 4.86 0 6.2.391a9.752 9.752 0 0 1 6.44 6.073c.47 1.314.57 2.929.76 6.158l1.14 19.141c9.05-9.49 19.54-17.439 31.48-23.845 18.48-9.678 39.16-14.517 62.03-14.517 29.48 0 55.87 7.258 79.19 21.776s41.57 34.315 54.77 59.391c13.64 25.076 20.46 53.451 20.46 85.126 0 31.235-6.82 59.39-20.46 84.466-13.2 25.076-31.45 44.873-54.77 59.391-23.32 14.518-49.71 21.776-79.19 21.776Zm-15.18-79.847c15.84 0 29.92-3.519 42.24-10.558 12.32-7.479 21.77-17.597 28.37-30.355 7.04-13.198 10.56-28.376 10.56-45.533 0-16.717-3.52-31.455-10.56-44.213-6.6-13.198-16.05-23.316-28.37-30.355-12.32-7.479-26.4-11.218-42.24-11.218-15.39 0-29.25 3.739-41.57 11.218-12.32 7.039-22 17.157-29.03 30.355-6.6 12.758-9.9 27.496-9.9 44.213 0 17.157 3.3 32.335 9.9 45.533 7.03 12.758 16.49 22.876 28.37 30.355 12.32 7.039 26.4 10.558 42.23 10.558Z" clip-rule="evenodd"/><path fill="#FF4D00" d="M1691.83 624.769c1.49.59 3.36.59 7.11.59 22.43 0 33.64 0 42.53-3.532a49.983 49.983 0 0 0 28-28.002c3.54-8.891 3.54-20.103 3.54-42.528V423.432c0-21.557-5.28-41.574-15.84-60.051-10.56-18.917-25.08-34.094-43.55-45.532-18.48-11.878-39.38-17.817-62.69-17.817-24.2 0-45.98 5.279-65.33 15.837-11.49 6.411-21.52 14.364-30.08 23.857l-1.23-20.473c-.19-3.229-.28-4.844-.76-6.158a9.73 9.73 0 0 0-6.44-6.073c-1.34-.391-2.96-.391-6.19-.391-17.5 0-26.25 0-33.37 2.167a49.99 49.99 0 0 0-33.27 33.265c-2.17 7.119-2.17 15.869-2.17 33.37v237.543c0 3.749 0 5.624.6 7.111a8.326 8.326 0 0 0 4.68 4.682c1.48.59 3.36.59 7.11.59 22.42 0 33.64 0 42.53-3.532a49.983 49.983 0 0 0 28-28.002c3.53-8.891 3.53-20.103 3.53-42.528v-90.836c0-17.892 1.13-40.055 7.92-51.547 5.72-9.678 13.42-17.157 23.1-22.436 9.67-5.279 20.67-7.919 32.99-7.919 18.92 0 35.95 4.892 47.82 16.77 11.88 11.878 16.19 28.323 16.19 47.24v170.407c0 3.749 0 5.624.59 7.111a8.355 8.355 0 0 0 4.68 4.682Zm-334.61.587c-3.84 0-5.76 0-7.27-.618a8.347 8.347 0 0 1-4.59-4.586c-.62-1.517-.62-3.436-.62-7.274V344.285c0-.52 0-.78.01-1 .23-23.401 19.15-42.312 42.55-42.551.22-.003.48-.003 1-.003s.78 0 1 .003c23.4.239 42.31 19.15 42.55 42.551v207.444c0 22.955 0 34.432-3.7 43.505a49.991 49.991 0 0 1-27.42 27.425c-9.08 3.697-20.55 3.697-43.51 3.697Z"/></svg>